<svg width="3457" height="822" xmlns="http://www.w3.org/2000/svg" xmlns:xlink="http://www.w3.org/1999/xlink" overflow="hidden"><defs><clipPath id="clip0"><rect x="-825" y="-149" width="3457" height="822"/></clipPath></defs><g clip-path="url(#clip0)" transform="translate(825 149)"><path d="M0.0537639-13.3332 311.982-12.0754 311.875 14.591-0.0537639 13.3332ZM298.756-38.7956 378.594 1.52661 298.434 41.2037Z" fill="#AFABAB" transform="matrix(1 0 0 -1 1212.5 220.027)"/><path d="M2100.5 207.167 2484.28 207.167 2484.28 233.833 2100.5 233.833ZM2470.95 180.5 2550.95 220.5 2470.95 260.5Z" fill="#AFABAB"/><text font-family="Times New Roman,Times New Roman_MSFontService,sans-serif" font-weight="400" font-size="128" transform="translate(-731.598 20)">Voluntary <tspan font-size="128" x="-15.3333" y="153">Command</tspan><tspan font-size="128" x="1067.02" y="-4">Neural </tspan><tspan font-size="128" x="978.263" y="149">Excitation</tspan></text><path d="M0-13.3333 24.3661-13.3333 24.3661 302.602 11.0328 289.269 1047.71 289.269 1034.37 302.602 1034.37 212.107 1061.04 212.107 1061.04 315.936-2.30057 315.936-2.30057 0 11.0328 13.3333 0 13.3333ZM1007.71 225.44 1047.71 145.44 1087.71 225.44Z" fill="#C55A11" transform="matrix(1 0 0 -1 803.5 203.94)"/><path d="M0.0130608-13.3333 796.985-12.5526 796.959 14.114-0.0130608 13.3333ZM783.679-39.2324 863.639 0.845984 783.6 40.7676Z" fill="#AFABAB" transform="matrix(1 0 0 -1 98.5001 208.346)"/><rect x="965.5" y="63.5001" width="493" height="310" stroke="#7F7F7F" stroke-width="1.33333" stroke-miterlimit="8" fill="#FFFFFF"/><text fill="#222A35" font-family="Times New Roman,Times New Roman_MSFontService,sans-serif" font-style="italic" font-weight="400" font-size="128" transform="translate(980.708 188)">Fatigued <tspan font-size="128" x="21.2466" y="153">Muscles</tspan></text><path d="M0-13.3333 23.0429-13.3333 23.0429 290.51 9.70953 277.176 1124.74 277.176 1124.74 303.843-3.6238 303.843-3.6238 0 9.70953 13.3333 0 13.3333ZM1111.41 250.51 1191.41 290.51 1111.41 330.51Z" fill="#AFABAB" transform="matrix(-1 1.22465e-16 1.22465e-16 1 2303.91 228.5)"/><text font-family="Times New Roman,Times New Roman_MSFontService,sans-serif" font-weight="400" font-size="128" transform="translate(2147.14 15)">Hand<tspan font-size="128" x="-14.2532" y="153">Grasp</tspan></text><path d="M0.0407244-13.3333 599.556-11.5021 599.475 15.1644-0.0407244 13.3333ZM586.304-38.2094 666.182 2.03475 586.06 41.7902Z" fill="#AFABAB" transform="matrix(1 0 0 -1 -786.5 209.535)"/><rect x="1590.5" y="58.5001" width="521" height="320" stroke="#767171" stroke-linejoin="round" stroke-miterlimit="10" fill="#FFFFFF"/><text font-family="Times New Roman,Times New Roman_MSFontService,sans-serif" font-weight="400" font-size="128" transform="translate(1610.57 186)">Wearable <tspan font-size="128" x="80.04" y="153">robots</tspan></text><path d="M745.504 528.196 25.7045 528.196 25.2526 355.169 51.9191 355.099 52.3363 514.828 39.0031 501.529 745.504 501.529ZM-0.977417 369.712 36.5001 288.5 78.9835 367.209Z" fill="#AFABAB"/><rect x="244.5" y="409.5" width="868" height="218" stroke="#7F7F7F" stroke-width="1.33333" stroke-miterlimit="8" fill="#FFFFFF"/><text fill="#222A35" font-family="Times New Roman,Times New Roman_MSFontService,sans-serif" font-weight="400" font-size="128" transform="translate(297.679 565)">Proprioception</text><rect x="-118.5" y="115.5" width="337" height="179" stroke="#7F7F7F" stroke-width="1.33333" stroke-miterlimit="8" fill="#FFFFFF"/><text fill="#222A35" font-family="Times New Roman,Times New Roman_MSFontService,sans-serif" font-weight="400" font-size="128" transform="translate(-74.6315 252)">CNS</text></g></svg>